%TF.GenerationSoftware,KiCad,Pcbnew,(5.99.0-10282-g296a9df530)*%
%TF.CreationDate,2021-04-29T22:35:14+02:00*%
%TF.ProjectId,Eck_hoch_3_V1,45636b5f-686f-4636-985f-335f56312e6b,rev?*%
%TF.SameCoordinates,Original*%
%TF.FileFunction,Soldermask,Bot*%
%TF.FilePolarity,Negative*%
%FSLAX46Y46*%
G04 Gerber Fmt 4.6, Leading zero omitted, Abs format (unit mm)*
G04 Created by KiCad (PCBNEW (5.99.0-10282-g296a9df530)) date 2021-04-29 22:35:14*
%MOMM*%
%LPD*%
G01*
G04 APERTURE LIST*
%ADD10C,0.150000*%
%ADD11O,0.890000X1.550000*%
%ADD12O,1.250000X0.950000*%
%ADD13R,1.700000X1.700000*%
%ADD14O,1.700000X1.700000*%
%ADD15C,0.750000*%
%ADD16C,1.500000*%
%ADD17R,1.500000X1.500000*%
G04 APERTURE END LIST*
D10*
X189433200Y-100279200D02*
X185470800Y-100279200D01*
X185470800Y-100279200D02*
X185470800Y-112725200D01*
X185470800Y-112725200D02*
X189433200Y-112725200D01*
X189433200Y-112725200D02*
X189433200Y-100279200D01*
G36*
X189433200Y-100279200D02*
G01*
X185470800Y-100279200D01*
X185470800Y-112725200D01*
X189433200Y-112725200D01*
X189433200Y-100279200D01*
G37*
%TO.C,G\u002A\u002A\u002A*%
G36*
X171706709Y-104740506D02*
G01*
X171708435Y-104848245D01*
X171716811Y-104913967D01*
X171736212Y-104942980D01*
X171771013Y-104949493D01*
X171775632Y-104949549D01*
X171813639Y-104961006D01*
X171831109Y-105003761D01*
X171835316Y-105094177D01*
X171835292Y-105104571D01*
X171830200Y-105190085D01*
X171811197Y-105229394D01*
X171771013Y-105238861D01*
X171767980Y-105238880D01*
X171743215Y-105243191D01*
X171726197Y-105261956D01*
X171715474Y-105305145D01*
X171709591Y-105382727D01*
X171707095Y-105504672D01*
X171706530Y-105680949D01*
X171705724Y-105802467D01*
X171698673Y-106011412D01*
X171683087Y-106168553D01*
X171657423Y-106282120D01*
X171620141Y-106360344D01*
X171569698Y-106411457D01*
X171549816Y-106422763D01*
X171454198Y-106450262D01*
X171329808Y-106460633D01*
X171160127Y-106460633D01*
X171160127Y-106332025D01*
X171163385Y-106261431D01*
X171181253Y-106215184D01*
X171221801Y-106203418D01*
X171267552Y-106202534D01*
X171316239Y-106193714D01*
X171349216Y-106167551D01*
X171369542Y-106114651D01*
X171380274Y-106025625D01*
X171384471Y-105891079D01*
X171385190Y-105701623D01*
X171385190Y-105238861D01*
X171272658Y-105238861D01*
X171222581Y-105237968D01*
X171178810Y-105225174D01*
X171162529Y-105183077D01*
X171160127Y-105094177D01*
X171160821Y-105029792D01*
X171170772Y-104973515D01*
X171203514Y-104952582D01*
X171272658Y-104949493D01*
X171385190Y-104949493D01*
X171385190Y-104531519D01*
X171706709Y-104531519D01*
X171706709Y-104740506D01*
G37*
G36*
X166851772Y-106460633D02*
G01*
X166530253Y-106460633D01*
X166530253Y-105928013D01*
X166529399Y-105804163D01*
X166525256Y-105633358D01*
X166518261Y-105490218D01*
X166509072Y-105386954D01*
X166498348Y-105335777D01*
X166462380Y-105291072D01*
X166367787Y-105240792D01*
X166249055Y-105226665D01*
X166127185Y-105253353D01*
X166101027Y-105264204D01*
X166031721Y-105292018D01*
X166000093Y-105303164D01*
X165993194Y-105296542D01*
X165959411Y-105251304D01*
X165908951Y-105177342D01*
X165890646Y-105149309D01*
X165852898Y-105081918D01*
X165849009Y-105041799D01*
X165875232Y-105010401D01*
X165909581Y-104993154D01*
X165997342Y-104970558D01*
X166106946Y-104956460D01*
X166136180Y-104954595D01*
X166244146Y-104955233D01*
X166324820Y-104976356D01*
X166407747Y-105024663D01*
X166526379Y-105105686D01*
X166536354Y-105035628D01*
X166537262Y-105029839D01*
X166555707Y-104988364D01*
X166603883Y-104966498D01*
X166699051Y-104955770D01*
X166851772Y-104945970D01*
X166851772Y-106460633D01*
G37*
G36*
X178362152Y-107521645D02*
G01*
X178040633Y-107521645D01*
X178040633Y-107232278D01*
X178362152Y-107232278D01*
X178362152Y-107521645D01*
G37*
G36*
X172767722Y-109322152D02*
G01*
X172446203Y-109322152D01*
X172446203Y-108789532D01*
X172445473Y-108673694D01*
X172441401Y-108498953D01*
X172434314Y-108353285D01*
X172424857Y-108248430D01*
X172413672Y-108196128D01*
X172384247Y-108162201D01*
X172298611Y-108115742D01*
X172189535Y-108089462D01*
X172082375Y-108091379D01*
X172078980Y-108092035D01*
X172012655Y-108110029D01*
X171963044Y-108140273D01*
X171927509Y-108191441D01*
X171903413Y-108272208D01*
X171888119Y-108391249D01*
X171878990Y-108557238D01*
X171873389Y-108778850D01*
X171863234Y-109322152D01*
X171578101Y-109322152D01*
X171577922Y-108863987D01*
X171577311Y-108738718D01*
X171572038Y-108535636D01*
X171559609Y-108383624D01*
X171537921Y-108273984D01*
X171504873Y-108198016D01*
X171458363Y-108147022D01*
X171396288Y-108112304D01*
X171359189Y-108097970D01*
X171268425Y-108081735D01*
X171170334Y-108102316D01*
X171127848Y-108118878D01*
X171068793Y-108158000D01*
X171025843Y-108217899D01*
X170996603Y-108307254D01*
X170978681Y-108434743D01*
X170969683Y-108609046D01*
X170967215Y-108838841D01*
X170967215Y-109322152D01*
X170677848Y-109322152D01*
X170678554Y-108767531D01*
X170679635Y-108564451D01*
X170683082Y-108405728D01*
X170689914Y-108288983D01*
X170701157Y-108202846D01*
X170717839Y-108135951D01*
X170740989Y-108076930D01*
X170762824Y-108033662D01*
X170865163Y-107909041D01*
X171005140Y-107835409D01*
X171185486Y-107811133D01*
X171241440Y-107812003D01*
X171329732Y-107824228D01*
X171401352Y-107860461D01*
X171486007Y-107932722D01*
X171616485Y-108054431D01*
X171738194Y-107932722D01*
X171785078Y-107887463D01*
X171853638Y-107836978D01*
X171927487Y-107815501D01*
X172036035Y-107811012D01*
X172106678Y-107813266D01*
X172224527Y-107835709D01*
X172327247Y-107889109D01*
X172442329Y-107967205D01*
X172452304Y-107897147D01*
X172453211Y-107891358D01*
X172471656Y-107849883D01*
X172519833Y-107828017D01*
X172615000Y-107817289D01*
X172767722Y-107807489D01*
X172767722Y-109322152D01*
G37*
G36*
X177622658Y-109322152D02*
G01*
X177301139Y-109322152D01*
X177301139Y-108789532D01*
X177300410Y-108673694D01*
X177296338Y-108498953D01*
X177289251Y-108353285D01*
X177279794Y-108248430D01*
X177268609Y-108196128D01*
X177239174Y-108162102D01*
X177153215Y-108115593D01*
X177043359Y-108089580D01*
X176934664Y-108091885D01*
X176858593Y-108125368D01*
X176785985Y-108188982D01*
X176779625Y-108197310D01*
X176757485Y-108234130D01*
X176741877Y-108281909D01*
X176731682Y-108351317D01*
X176725783Y-108453020D01*
X176723063Y-108597686D01*
X176722405Y-108795981D01*
X176722405Y-109322152D01*
X176396827Y-109322152D01*
X176406895Y-108751455D01*
X176406901Y-108751099D01*
X176413370Y-108507112D01*
X176424726Y-108318148D01*
X176443438Y-108174982D01*
X176471974Y-108068390D01*
X176512801Y-107989149D01*
X176568389Y-107928035D01*
X176641205Y-107875823D01*
X176715408Y-107840191D01*
X176874128Y-107809881D01*
X177037962Y-107826389D01*
X177182184Y-107889109D01*
X177297265Y-107967205D01*
X177307240Y-107897147D01*
X177308148Y-107891358D01*
X177326593Y-107849883D01*
X177374770Y-107828017D01*
X177469937Y-107817289D01*
X177622658Y-107807489D01*
X177622658Y-109322152D01*
G37*
G36*
X168196542Y-107817902D02*
G01*
X168339830Y-107855280D01*
X168462761Y-107932240D01*
X168575774Y-108047704D01*
X168650233Y-108174814D01*
X168658003Y-108203632D01*
X168671419Y-108299827D01*
X168680541Y-108430761D01*
X168683724Y-108576713D01*
X168683244Y-108622405D01*
X168665244Y-108849936D01*
X168618409Y-109026114D01*
X168538777Y-109157941D01*
X168422388Y-109252420D01*
X168265281Y-109316554D01*
X168241792Y-109322825D01*
X168058594Y-109345099D01*
X167872173Y-109327826D01*
X167702835Y-109274720D01*
X167570882Y-109189497D01*
X167493894Y-109117171D01*
X167595026Y-109012830D01*
X167696157Y-108908488D01*
X167791089Y-108978675D01*
X167904877Y-109034348D01*
X168044171Y-109053058D01*
X168178590Y-109029280D01*
X168285862Y-108963689D01*
X168316080Y-108930427D01*
X168352531Y-108868272D01*
X168373922Y-108783292D01*
X168387043Y-108654757D01*
X168389201Y-108475087D01*
X168359004Y-108304751D01*
X168291835Y-108185200D01*
X168186647Y-108114723D01*
X168042393Y-108091611D01*
X168033744Y-108091755D01*
X167916508Y-108111963D01*
X167807836Y-108155949D01*
X167698790Y-108220288D01*
X167590066Y-108131552D01*
X167568762Y-108113965D01*
X167515117Y-108062432D01*
X167504166Y-108025812D01*
X167528266Y-107986123D01*
X167576002Y-107941811D01*
X167700581Y-107875892D01*
X167858086Y-107831244D01*
X168029683Y-107810901D01*
X168196542Y-107817902D01*
G37*
G36*
X176007025Y-106460453D02*
G01*
X175887976Y-106459976D01*
X175684235Y-106455466D01*
X175529226Y-106444431D01*
X175412507Y-106424726D01*
X175323639Y-106394207D01*
X175252183Y-106350730D01*
X175187698Y-106292150D01*
X175117128Y-106206247D01*
X175037093Y-106038737D01*
X175018293Y-105860376D01*
X175025726Y-105829580D01*
X175339873Y-105829580D01*
X175342520Y-105921132D01*
X175360177Y-106015761D01*
X175401881Y-106078159D01*
X175476205Y-106127032D01*
X175477648Y-106127763D01*
X175548729Y-106150100D01*
X175657950Y-106170088D01*
X175788388Y-106186326D01*
X175923121Y-106197409D01*
X176045226Y-106201935D01*
X176137780Y-106198501D01*
X176183861Y-106185704D01*
X176190348Y-106167240D01*
X176199424Y-106094322D01*
X176205658Y-105981633D01*
X176207975Y-105844388D01*
X176207975Y-105528228D01*
X175852842Y-105528228D01*
X175788622Y-105528313D01*
X175651707Y-105530205D01*
X175560138Y-105536512D01*
X175500043Y-105549756D01*
X175457551Y-105572460D01*
X175418792Y-105607146D01*
X175393948Y-105634536D01*
X175351661Y-105716156D01*
X175339873Y-105829580D01*
X175025726Y-105829580D01*
X175062210Y-105678415D01*
X175068183Y-105665140D01*
X175127736Y-105574068D01*
X175209458Y-105488305D01*
X175295111Y-105424567D01*
X175366454Y-105399570D01*
X175376572Y-105397624D01*
X175365533Y-105377735D01*
X175308362Y-105343304D01*
X175293409Y-105335180D01*
X175199067Y-105263242D01*
X175120644Y-105174557D01*
X175110959Y-105159881D01*
X175070598Y-105081316D01*
X175054865Y-104996373D01*
X175056074Y-104946762D01*
X175352803Y-104946762D01*
X175377947Y-105072950D01*
X175459210Y-105174165D01*
X175486780Y-105193588D01*
X175538863Y-105216800D01*
X175611333Y-105230569D01*
X175718813Y-105237166D01*
X175875922Y-105238861D01*
X176210388Y-105238861D01*
X176201143Y-104941455D01*
X176191899Y-104644050D01*
X175934684Y-104633949D01*
X175818741Y-104631564D01*
X175645626Y-104641615D01*
X175521212Y-104672884D01*
X175436824Y-104728147D01*
X175383786Y-104810178D01*
X175352803Y-104946762D01*
X175056074Y-104946762D01*
X175057782Y-104876720D01*
X175058346Y-104869032D01*
X175089987Y-104701493D01*
X175162763Y-104569708D01*
X175287836Y-104453126D01*
X175304243Y-104441507D01*
X175344161Y-104420166D01*
X175396440Y-104404673D01*
X175471467Y-104393805D01*
X175579631Y-104386339D01*
X175731321Y-104381054D01*
X175936925Y-104376725D01*
X176497342Y-104366614D01*
X176497342Y-106460633D01*
X176007025Y-106460453D01*
G37*
G36*
X176014331Y-108630168D02*
G01*
X176010781Y-108772700D01*
X175999365Y-108874992D01*
X175976937Y-108956167D01*
X175940350Y-109035349D01*
X175879084Y-109127761D01*
X175738486Y-109249246D01*
X175553997Y-109325278D01*
X175525044Y-109331649D01*
X175359411Y-109341162D01*
X175182196Y-109316615D01*
X175026440Y-109261973D01*
X174995695Y-109246009D01*
X174898138Y-109186589D01*
X174855805Y-109135800D01*
X174864201Y-109083525D01*
X174918835Y-109019644D01*
X175011051Y-108931296D01*
X175148867Y-109001604D01*
X175219831Y-109032307D01*
X175376112Y-109059604D01*
X175517712Y-109027784D01*
X175637279Y-108937807D01*
X175652849Y-108919133D01*
X175704750Y-108833904D01*
X175725696Y-108758986D01*
X175725696Y-108679114D01*
X174784651Y-108679114D01*
X174800473Y-108457975D01*
X174809808Y-108402644D01*
X175082658Y-108402644D01*
X175085359Y-108417606D01*
X175107206Y-108436191D01*
X175160283Y-108447287D01*
X175255603Y-108452653D01*
X175404177Y-108454050D01*
X175519615Y-108453385D01*
X175636975Y-108447198D01*
X175703400Y-108429428D01*
X175726775Y-108394047D01*
X175714986Y-108335026D01*
X175675919Y-108246339D01*
X175646655Y-108196284D01*
X175553019Y-108110283D01*
X175438983Y-108072288D01*
X175320344Y-108082299D01*
X175212896Y-108140316D01*
X175132436Y-108246339D01*
X175128244Y-108255355D01*
X175095913Y-108339875D01*
X175082658Y-108402644D01*
X174809808Y-108402644D01*
X174838677Y-108231539D01*
X174917085Y-108050628D01*
X175033766Y-107918872D01*
X175186906Y-107838318D01*
X175374687Y-107811012D01*
X175570793Y-107828085D01*
X175736909Y-107885720D01*
X175861719Y-107987139D01*
X175947828Y-108135496D01*
X175997839Y-108333945D01*
X176001783Y-108394047D01*
X176014357Y-108585639D01*
X176014331Y-108630168D01*
G37*
G36*
X167173291Y-109322152D02*
G01*
X166851772Y-109322152D01*
X166851772Y-108789532D01*
X166851043Y-108673694D01*
X166846971Y-108498953D01*
X166839884Y-108353285D01*
X166830426Y-108248430D01*
X166819242Y-108196128D01*
X166789807Y-108162102D01*
X166703848Y-108115593D01*
X166593992Y-108089580D01*
X166485297Y-108091885D01*
X166409225Y-108125368D01*
X166336618Y-108188982D01*
X166330258Y-108197310D01*
X166308118Y-108234130D01*
X166292510Y-108281909D01*
X166282315Y-108351317D01*
X166276416Y-108453020D01*
X166273696Y-108597686D01*
X166273038Y-108795981D01*
X166273038Y-109322152D01*
X165947460Y-109322152D01*
X165957527Y-108751455D01*
X165957534Y-108751099D01*
X165964003Y-108507112D01*
X165975359Y-108318148D01*
X165994071Y-108174982D01*
X166022607Y-108068390D01*
X166063434Y-107989149D01*
X166119022Y-107928035D01*
X166191838Y-107875823D01*
X166265655Y-107840262D01*
X166424774Y-107809766D01*
X166589204Y-107826703D01*
X166734754Y-107890423D01*
X166851772Y-107969834D01*
X166851772Y-107232278D01*
X167173291Y-107232278D01*
X167173291Y-109322152D01*
G37*
G36*
X174407468Y-109322152D02*
G01*
X174085949Y-109322152D01*
X174085949Y-108789532D01*
X174085220Y-108673694D01*
X174081148Y-108498953D01*
X174074061Y-108353285D01*
X174064604Y-108248430D01*
X174053419Y-108196128D01*
X174023984Y-108162102D01*
X173938025Y-108115593D01*
X173828169Y-108089580D01*
X173719474Y-108091885D01*
X173643403Y-108125368D01*
X173570795Y-108188982D01*
X173564435Y-108197310D01*
X173542296Y-108234130D01*
X173526687Y-108281909D01*
X173516492Y-108351317D01*
X173510593Y-108453020D01*
X173507874Y-108597686D01*
X173507215Y-108795981D01*
X173507215Y-109322152D01*
X173181637Y-109322152D01*
X173191705Y-108751455D01*
X173191711Y-108751099D01*
X173198180Y-108507112D01*
X173209536Y-108318148D01*
X173228248Y-108174982D01*
X173256784Y-108068390D01*
X173297611Y-107989149D01*
X173353199Y-107928035D01*
X173426015Y-107875823D01*
X173500218Y-107840191D01*
X173658938Y-107809881D01*
X173822772Y-107826389D01*
X173966994Y-107889109D01*
X174082075Y-107967205D01*
X174092050Y-107897147D01*
X174092958Y-107891358D01*
X174111403Y-107849883D01*
X174159580Y-107828017D01*
X174254747Y-107817289D01*
X174407468Y-107807489D01*
X174407468Y-109322152D01*
G37*
G36*
X179294557Y-107602025D02*
G01*
X179296283Y-107709764D01*
X179304659Y-107775486D01*
X179324061Y-107804499D01*
X179358861Y-107811012D01*
X179363480Y-107811068D01*
X179401487Y-107822525D01*
X179418957Y-107865280D01*
X179423165Y-107955696D01*
X179423140Y-107966090D01*
X179418048Y-108051604D01*
X179399046Y-108090913D01*
X179358861Y-108100380D01*
X179355828Y-108100399D01*
X179331063Y-108104710D01*
X179314045Y-108123475D01*
X179303322Y-108166664D01*
X179297440Y-108244246D01*
X179294943Y-108366191D01*
X179294378Y-108542468D01*
X179293572Y-108663986D01*
X179286521Y-108872931D01*
X179270935Y-109030072D01*
X179245271Y-109143639D01*
X179207989Y-109221863D01*
X179157546Y-109272976D01*
X179137664Y-109284282D01*
X179042046Y-109311781D01*
X178917656Y-109322152D01*
X178747975Y-109322152D01*
X178747975Y-109193544D01*
X178751233Y-109122950D01*
X178769101Y-109076703D01*
X178809649Y-109064936D01*
X178855401Y-109064053D01*
X178904087Y-109055233D01*
X178937064Y-109029070D01*
X178957390Y-108976170D01*
X178968122Y-108887144D01*
X178972319Y-108752598D01*
X178973038Y-108563142D01*
X178973038Y-108100380D01*
X178860506Y-108100380D01*
X178810429Y-108099487D01*
X178766658Y-108086693D01*
X178750377Y-108044596D01*
X178747975Y-107955696D01*
X178748669Y-107891311D01*
X178758620Y-107835034D01*
X178791362Y-107814101D01*
X178860506Y-107811012D01*
X178973038Y-107811012D01*
X178973038Y-107393038D01*
X179294557Y-107393038D01*
X179294557Y-107602025D01*
G37*
G36*
X170209132Y-109161068D02*
G01*
X170091548Y-109265295D01*
X169922279Y-109331326D01*
X169893366Y-109337581D01*
X169704563Y-109346772D01*
X169527888Y-109304568D01*
X169516475Y-109299903D01*
X169433363Y-109275960D01*
X169397633Y-109288492D01*
X169388973Y-109297800D01*
X169332695Y-109315235D01*
X169244409Y-109322152D01*
X169102405Y-109322152D01*
X169102405Y-108732096D01*
X169102507Y-108679114D01*
X169391772Y-108679114D01*
X169391772Y-108854818D01*
X169391785Y-108862410D01*
X169397231Y-108968680D01*
X169416195Y-109029891D01*
X169453962Y-109063805D01*
X169486704Y-109075468D01*
X169577850Y-109091003D01*
X169687948Y-109097088D01*
X169792476Y-109091268D01*
X169912052Y-109057356D01*
X169980709Y-108990722D01*
X170002658Y-108888574D01*
X169998421Y-108823528D01*
X169971155Y-108751636D01*
X169910024Y-108707474D01*
X169805159Y-108685236D01*
X169646691Y-108679114D01*
X169391772Y-108679114D01*
X169102507Y-108679114D01*
X169102808Y-108523450D01*
X169104746Y-108367309D01*
X169109302Y-108254762D01*
X169117560Y-108175423D01*
X169130604Y-108118906D01*
X169149519Y-108074824D01*
X169175388Y-108032792D01*
X169199274Y-107999760D01*
X169317816Y-107892917D01*
X169473799Y-107831042D01*
X169674134Y-107811062D01*
X169859877Y-107827205D01*
X170036590Y-107879045D01*
X170170335Y-107961956D01*
X170185716Y-107976346D01*
X170205554Y-108007874D01*
X170185277Y-108039643D01*
X170117797Y-108088763D01*
X170094563Y-108104359D01*
X170027517Y-108140890D01*
X169971256Y-108143437D01*
X169893711Y-108115881D01*
X169892281Y-108115285D01*
X169741232Y-108075065D01*
X169604731Y-108079820D01*
X169493704Y-108125117D01*
X169419076Y-108206522D01*
X169391772Y-108319600D01*
X169391772Y-108413137D01*
X169689353Y-108428702D01*
X169777906Y-108434861D01*
X169977678Y-108465948D01*
X170123468Y-108521300D01*
X170220783Y-108604983D01*
X170275133Y-108721063D01*
X170292025Y-108873607D01*
X170290313Y-108888574D01*
X170275497Y-109018067D01*
X170209132Y-109161068D01*
G37*
G36*
X165564964Y-108630168D02*
G01*
X165561414Y-108772700D01*
X165549998Y-108874992D01*
X165527570Y-108956167D01*
X165490983Y-109035349D01*
X165429717Y-109127761D01*
X165289119Y-109249246D01*
X165104630Y-109325278D01*
X165075677Y-109331649D01*
X164910044Y-109341162D01*
X164732829Y-109316615D01*
X164577073Y-109261973D01*
X164546327Y-109246009D01*
X164448771Y-109186589D01*
X164406437Y-109135800D01*
X164414834Y-109083525D01*
X164469468Y-109019644D01*
X164561683Y-108931296D01*
X164699499Y-109001604D01*
X164770464Y-109032307D01*
X164926744Y-109059604D01*
X165068345Y-109027784D01*
X165187911Y-108937807D01*
X165203482Y-108919133D01*
X165255383Y-108833904D01*
X165276329Y-108758986D01*
X165276329Y-108679114D01*
X164335284Y-108679114D01*
X164351106Y-108457975D01*
X164360441Y-108402644D01*
X164633291Y-108402644D01*
X164635992Y-108417606D01*
X164657839Y-108436191D01*
X164710916Y-108447287D01*
X164806236Y-108452653D01*
X164954810Y-108454050D01*
X165070248Y-108453385D01*
X165187608Y-108447198D01*
X165254033Y-108429428D01*
X165277407Y-108394047D01*
X165265619Y-108335026D01*
X165226552Y-108246339D01*
X165197288Y-108196284D01*
X165103652Y-108110283D01*
X164989616Y-108072288D01*
X164870977Y-108082299D01*
X164763529Y-108140316D01*
X164683068Y-108246339D01*
X164678877Y-108255355D01*
X164646546Y-108339875D01*
X164633291Y-108402644D01*
X164360441Y-108402644D01*
X164389310Y-108231539D01*
X164467718Y-108050628D01*
X164584399Y-107918872D01*
X164737538Y-107838318D01*
X164925320Y-107811012D01*
X165121426Y-107828085D01*
X165287542Y-107885720D01*
X165412352Y-107987139D01*
X165498461Y-108135496D01*
X165548472Y-108333945D01*
X165552416Y-108394047D01*
X165564990Y-108585639D01*
X165564964Y-108630168D01*
G37*
G36*
X180883563Y-109161068D02*
G01*
X180765978Y-109265295D01*
X180596709Y-109331326D01*
X180567797Y-109337581D01*
X180378993Y-109346772D01*
X180202318Y-109304568D01*
X180190906Y-109299903D01*
X180107793Y-109275960D01*
X180072064Y-109288492D01*
X180063403Y-109297800D01*
X180007125Y-109315235D01*
X179918840Y-109322152D01*
X179776835Y-109322152D01*
X179776835Y-108732096D01*
X179776938Y-108679114D01*
X180066203Y-108679114D01*
X180066203Y-108854818D01*
X180066215Y-108862410D01*
X180071661Y-108968680D01*
X180090625Y-109029891D01*
X180128393Y-109063805D01*
X180161134Y-109075468D01*
X180252280Y-109091003D01*
X180362378Y-109097088D01*
X180466906Y-109091268D01*
X180586482Y-109057356D01*
X180655139Y-108990722D01*
X180677089Y-108888574D01*
X180672851Y-108823528D01*
X180645585Y-108751636D01*
X180584454Y-108707474D01*
X180479589Y-108685236D01*
X180321121Y-108679114D01*
X180066203Y-108679114D01*
X179776938Y-108679114D01*
X179777239Y-108523450D01*
X179779176Y-108367309D01*
X179783732Y-108254762D01*
X179791990Y-108175423D01*
X179805035Y-108118906D01*
X179823949Y-108074824D01*
X179849818Y-108032792D01*
X179873704Y-107999760D01*
X179992246Y-107892917D01*
X180148230Y-107831042D01*
X180348564Y-107811062D01*
X180534308Y-107827205D01*
X180711020Y-107879045D01*
X180844765Y-107961956D01*
X180860146Y-107976346D01*
X180879984Y-108007874D01*
X180859708Y-108039643D01*
X180792227Y-108088763D01*
X180768993Y-108104359D01*
X180701947Y-108140890D01*
X180645686Y-108143437D01*
X180568141Y-108115881D01*
X180566711Y-108115285D01*
X180415662Y-108075065D01*
X180279161Y-108079820D01*
X180168134Y-108125117D01*
X180093506Y-108206522D01*
X180066203Y-108319600D01*
X180066203Y-108413137D01*
X180363783Y-108428702D01*
X180452336Y-108434861D01*
X180652108Y-108465948D01*
X180797898Y-108521300D01*
X180895213Y-108604983D01*
X180949563Y-108721063D01*
X180966456Y-108873607D01*
X180964743Y-108888574D01*
X180949927Y-109018067D01*
X180883563Y-109161068D01*
G37*
G36*
X169295316Y-105279877D02*
G01*
X169294565Y-105571211D01*
X169291663Y-105805293D01*
X169285584Y-105989044D01*
X169275300Y-106129384D01*
X169259783Y-106233234D01*
X169238006Y-106307515D01*
X169208939Y-106359146D01*
X169171556Y-106395050D01*
X169124829Y-106422145D01*
X169100652Y-106431262D01*
X169009422Y-106449990D01*
X168901456Y-106458457D01*
X168748734Y-106460633D01*
X168748734Y-106332025D01*
X168751993Y-106261431D01*
X168769861Y-106215184D01*
X168810408Y-106203418D01*
X168840932Y-106203495D01*
X168881616Y-106200933D01*
X168913021Y-106189050D01*
X168936345Y-106160973D01*
X168952788Y-106109830D01*
X168963551Y-106028748D01*
X168969834Y-105910854D01*
X168972836Y-105749275D01*
X168973757Y-105537139D01*
X168973797Y-105267573D01*
X168973797Y-104370759D01*
X169295316Y-104370759D01*
X169295316Y-105279877D01*
G37*
G36*
X168458634Y-105768649D02*
G01*
X168455084Y-105911181D01*
X168443669Y-106013473D01*
X168421241Y-106094648D01*
X168384653Y-106173830D01*
X168323388Y-106266242D01*
X168182789Y-106387727D01*
X167998301Y-106463759D01*
X167969348Y-106470130D01*
X167803715Y-106479643D01*
X167626500Y-106455096D01*
X167470744Y-106400454D01*
X167439998Y-106384490D01*
X167342442Y-106325070D01*
X167300108Y-106274281D01*
X167308505Y-106222006D01*
X167363139Y-106158125D01*
X167455354Y-106069777D01*
X167593170Y-106140085D01*
X167664134Y-106170788D01*
X167820415Y-106198085D01*
X167962015Y-106166265D01*
X168081582Y-106076288D01*
X168097153Y-106057614D01*
X168149054Y-105972385D01*
X168170000Y-105897467D01*
X168170000Y-105817595D01*
X167228955Y-105817595D01*
X167244777Y-105596456D01*
X167254112Y-105541125D01*
X167526962Y-105541125D01*
X167529663Y-105556087D01*
X167551510Y-105574672D01*
X167604587Y-105585768D01*
X167699907Y-105591134D01*
X167848481Y-105592531D01*
X167963919Y-105591866D01*
X168081279Y-105585679D01*
X168147703Y-105567909D01*
X168171078Y-105532528D01*
X168159290Y-105473507D01*
X168120223Y-105384820D01*
X168090959Y-105334765D01*
X167997323Y-105248764D01*
X167883287Y-105210769D01*
X167764648Y-105220780D01*
X167657200Y-105278797D01*
X167576739Y-105384820D01*
X167572548Y-105393836D01*
X167540216Y-105478356D01*
X167526962Y-105541125D01*
X167254112Y-105541125D01*
X167282981Y-105370020D01*
X167361388Y-105189109D01*
X167478070Y-105057353D01*
X167631209Y-104976800D01*
X167818991Y-104949493D01*
X168015097Y-104966566D01*
X168181213Y-105024201D01*
X168306023Y-105125620D01*
X168392132Y-105273977D01*
X168442143Y-105472426D01*
X168446087Y-105532528D01*
X168458661Y-105724120D01*
X168458634Y-105768649D01*
G37*
G36*
X174632532Y-106460633D02*
G01*
X174311013Y-106460633D01*
X174311013Y-105928013D01*
X174310159Y-105804163D01*
X174306015Y-105633358D01*
X174299020Y-105490218D01*
X174289832Y-105386954D01*
X174279108Y-105335777D01*
X174243140Y-105291072D01*
X174148547Y-105240792D01*
X174029814Y-105226665D01*
X173907945Y-105253353D01*
X173881786Y-105264204D01*
X173812481Y-105292018D01*
X173780852Y-105303164D01*
X173773954Y-105296542D01*
X173740171Y-105251304D01*
X173689710Y-105177342D01*
X173671406Y-105149309D01*
X173633658Y-105081918D01*
X173629769Y-105041799D01*
X173655991Y-105010401D01*
X173690341Y-104993154D01*
X173778101Y-104970558D01*
X173887705Y-104956460D01*
X173916940Y-104954595D01*
X174024905Y-104955233D01*
X174105580Y-104976356D01*
X174188506Y-105024663D01*
X174307139Y-105105686D01*
X174317114Y-105035628D01*
X174318021Y-105029839D01*
X174336466Y-104988364D01*
X174384643Y-104966498D01*
X174479810Y-104955770D01*
X174632532Y-104945970D01*
X174632532Y-106460633D01*
G37*
G36*
X183249241Y-109322152D02*
G01*
X183249241Y-108525468D01*
X182903608Y-108513622D01*
X182765796Y-108507786D01*
X182645116Y-108497750D01*
X182556896Y-108481113D01*
X182483763Y-108454382D01*
X182408341Y-108414064D01*
X182348601Y-108374482D01*
X182223141Y-108242867D01*
X182148568Y-108073287D01*
X182123924Y-107863884D01*
X182133868Y-107786699D01*
X182438493Y-107786699D01*
X182442537Y-107931592D01*
X182485100Y-108064261D01*
X182563418Y-108163221D01*
X182576828Y-108173293D01*
X182629004Y-108201738D01*
X182697676Y-108218689D01*
X182798750Y-108226866D01*
X182948133Y-108228987D01*
X183249241Y-108228987D01*
X183249241Y-107489493D01*
X182990993Y-107489493D01*
X182851383Y-107494898D01*
X182685253Y-107519456D01*
X182562650Y-107561540D01*
X182493355Y-107618613D01*
X182475733Y-107651069D01*
X182438493Y-107786699D01*
X182133868Y-107786699D01*
X182149338Y-107666616D01*
X182222654Y-107493140D01*
X182337556Y-107356333D01*
X182487726Y-107266572D01*
X182509958Y-107260808D01*
X182598502Y-107249529D01*
X182731255Y-107240480D01*
X182894494Y-107234462D01*
X183074498Y-107232278D01*
X183570760Y-107232278D01*
X183570760Y-109322152D01*
X183249241Y-109322152D01*
G37*
G36*
X178136356Y-105768649D02*
G01*
X178132806Y-105911181D01*
X178121391Y-106013473D01*
X178098963Y-106094648D01*
X178062375Y-106173830D01*
X178001109Y-106266242D01*
X177860511Y-106387727D01*
X177676023Y-106463759D01*
X177647070Y-106470130D01*
X177481437Y-106479643D01*
X177304221Y-106455096D01*
X177148466Y-106400454D01*
X177117720Y-106384490D01*
X177020163Y-106325070D01*
X176977830Y-106274281D01*
X176986226Y-106222006D01*
X177040860Y-106158125D01*
X177133076Y-106069777D01*
X177270892Y-106140085D01*
X177341856Y-106170788D01*
X177498137Y-106198085D01*
X177639737Y-106166265D01*
X177759304Y-106076288D01*
X177774875Y-106057614D01*
X177826775Y-105972385D01*
X177847722Y-105897467D01*
X177847722Y-105817595D01*
X176906676Y-105817595D01*
X176922499Y-105596456D01*
X176931834Y-105541125D01*
X177204684Y-105541125D01*
X177207384Y-105556087D01*
X177229231Y-105574672D01*
X177282309Y-105585768D01*
X177377629Y-105591134D01*
X177526203Y-105592531D01*
X177641641Y-105591866D01*
X177759001Y-105585679D01*
X177825425Y-105567909D01*
X177848800Y-105532528D01*
X177837011Y-105473507D01*
X177797944Y-105384820D01*
X177768681Y-105334765D01*
X177675044Y-105248764D01*
X177561009Y-105210769D01*
X177442369Y-105220780D01*
X177334921Y-105278797D01*
X177254461Y-105384820D01*
X177250269Y-105393836D01*
X177217938Y-105478356D01*
X177204684Y-105541125D01*
X176931834Y-105541125D01*
X176960703Y-105370020D01*
X177039110Y-105189109D01*
X177155791Y-105057353D01*
X177308931Y-104976800D01*
X177496712Y-104949493D01*
X177692818Y-104966566D01*
X177858935Y-105024201D01*
X177983745Y-105125620D01*
X178069853Y-105273977D01*
X178119864Y-105472426D01*
X178123809Y-105532528D01*
X178136383Y-105724120D01*
X178136356Y-105768649D01*
G37*
G36*
X173373149Y-105534399D02*
G01*
X173370391Y-105665618D01*
X173362469Y-105878474D01*
X173348735Y-106040965D01*
X173326242Y-106162304D01*
X173292043Y-106251708D01*
X173243189Y-106318389D01*
X173176734Y-106371562D01*
X173089730Y-106420443D01*
X173041587Y-106443434D01*
X172952521Y-106478837D01*
X172893535Y-106492785D01*
X172829658Y-106489092D01*
X172678155Y-106450670D01*
X172559191Y-106377861D01*
X172478354Y-106302944D01*
X172478354Y-106381788D01*
X172476882Y-106412503D01*
X172460676Y-106444609D01*
X172413052Y-106457969D01*
X172317595Y-106460633D01*
X172156835Y-106460633D01*
X172156835Y-104949493D01*
X172478354Y-104949493D01*
X172478354Y-105488922D01*
X172478383Y-105529103D01*
X172480395Y-105743116D01*
X172487440Y-105902874D01*
X172502107Y-106017003D01*
X172526987Y-106094128D01*
X172564669Y-106142875D01*
X172617744Y-106171869D01*
X172688802Y-106189737D01*
X172736692Y-106194670D01*
X172849739Y-106183161D01*
X172952222Y-106147293D01*
X173017589Y-106094737D01*
X173024047Y-106067746D01*
X173033163Y-105983955D01*
X173042223Y-105855844D01*
X173050455Y-105694785D01*
X173057089Y-105512152D01*
X173073165Y-104965569D01*
X173228465Y-104955664D01*
X173383766Y-104945759D01*
X173373149Y-105534399D01*
G37*
G36*
X179744684Y-106460633D02*
G01*
X179423165Y-106460633D01*
X179423165Y-105928013D01*
X179422436Y-105812175D01*
X179418363Y-105637434D01*
X179411276Y-105491766D01*
X179401819Y-105386911D01*
X179390634Y-105334609D01*
X179361199Y-105300583D01*
X179275241Y-105254074D01*
X179165384Y-105228061D01*
X179056689Y-105230366D01*
X178980618Y-105263849D01*
X178908011Y-105327463D01*
X178901650Y-105335791D01*
X178879511Y-105372611D01*
X178863902Y-105420390D01*
X178853707Y-105489798D01*
X178847809Y-105591501D01*
X178845089Y-105736167D01*
X178844430Y-105934462D01*
X178844430Y-106460633D01*
X178518852Y-106460633D01*
X178528920Y-105889936D01*
X178528926Y-105889580D01*
X178535395Y-105645593D01*
X178546752Y-105456629D01*
X178565464Y-105313463D01*
X178593999Y-105206871D01*
X178634827Y-105127630D01*
X178690414Y-105066516D01*
X178763231Y-105014304D01*
X178837048Y-104978743D01*
X178996167Y-104948247D01*
X179160596Y-104965184D01*
X179306146Y-105028904D01*
X179423165Y-105108315D01*
X179423165Y-104370759D01*
X179744684Y-104370759D01*
X179744684Y-106460633D01*
G37*
G36*
X180677089Y-104740506D02*
G01*
X180678815Y-104848245D01*
X180687190Y-104913967D01*
X180706592Y-104942980D01*
X180741392Y-104949493D01*
X180746012Y-104949549D01*
X180784018Y-104961006D01*
X180801489Y-105003761D01*
X180805696Y-105094177D01*
X180805672Y-105104571D01*
X180800579Y-105190085D01*
X180781577Y-105229394D01*
X180741392Y-105238861D01*
X180738360Y-105238880D01*
X180713594Y-105243191D01*
X180696577Y-105261956D01*
X180685854Y-105305145D01*
X180679971Y-105382727D01*
X180677474Y-105504672D01*
X180676909Y-105680949D01*
X180676104Y-105802467D01*
X180669053Y-106011412D01*
X180653466Y-106168553D01*
X180627803Y-106282120D01*
X180590520Y-106360344D01*
X180540078Y-106411457D01*
X180520196Y-106422763D01*
X180424578Y-106450262D01*
X180300188Y-106460633D01*
X180130506Y-106460633D01*
X180130506Y-106332025D01*
X180133765Y-106261431D01*
X180151633Y-106215184D01*
X180192181Y-106203418D01*
X180237932Y-106202534D01*
X180286619Y-106193714D01*
X180319596Y-106167551D01*
X180339921Y-106114651D01*
X180350654Y-106025625D01*
X180354850Y-105891079D01*
X180355570Y-105701623D01*
X180355570Y-105238861D01*
X180243038Y-105238861D01*
X180192961Y-105237968D01*
X180149190Y-105225174D01*
X180132909Y-105183077D01*
X180130506Y-105094177D01*
X180131200Y-105029792D01*
X180141152Y-104973515D01*
X180173894Y-104952582D01*
X180243038Y-104949493D01*
X180355570Y-104949493D01*
X180355570Y-104531519D01*
X180677089Y-104531519D01*
X180677089Y-104740506D01*
G37*
G36*
X181770253Y-108141396D02*
G01*
X181769501Y-108432730D01*
X181766600Y-108666812D01*
X181760521Y-108850563D01*
X181750237Y-108990903D01*
X181734720Y-109094753D01*
X181712942Y-109169034D01*
X181683876Y-109220665D01*
X181646493Y-109256569D01*
X181599766Y-109283664D01*
X181575588Y-109292781D01*
X181484358Y-109311509D01*
X181376392Y-109319976D01*
X181223671Y-109322152D01*
X181223671Y-109193544D01*
X181226930Y-109122950D01*
X181244797Y-109076703D01*
X181285345Y-109064936D01*
X181315868Y-109065014D01*
X181356553Y-109062452D01*
X181387957Y-109050569D01*
X181411281Y-109022492D01*
X181427725Y-108971349D01*
X181438488Y-108890267D01*
X181444771Y-108772373D01*
X181447773Y-108610794D01*
X181448694Y-108398658D01*
X181448734Y-108129092D01*
X181448734Y-107232278D01*
X181770253Y-107232278D01*
X181770253Y-108141396D01*
G37*
G36*
X178362152Y-109322152D02*
G01*
X178039448Y-109322152D01*
X178048078Y-108574620D01*
X178056709Y-107827088D01*
X178209430Y-107817289D01*
X178362152Y-107807489D01*
X178362152Y-109322152D01*
G37*
G36*
X170800266Y-105102215D02*
G01*
X170810153Y-105238861D01*
X170454634Y-105238861D01*
X170330221Y-105239800D01*
X170210457Y-105242922D01*
X170129107Y-105247715D01*
X170099114Y-105253639D01*
X170114964Y-105278662D01*
X170164296Y-105347097D01*
X170241018Y-105450352D01*
X170338913Y-105580066D01*
X170451765Y-105727880D01*
X170527400Y-105826758D01*
X170634571Y-105969501D01*
X170710188Y-106076123D01*
X170759666Y-106155754D01*
X170788423Y-106217522D01*
X170801874Y-106270556D01*
X170805436Y-106323987D01*
X170806456Y-106460633D01*
X169681139Y-106460633D01*
X169681139Y-106203418D01*
X170050886Y-106203418D01*
X170188410Y-106201592D01*
X170308962Y-106196190D01*
X170390600Y-106188072D01*
X170420633Y-106178107D01*
X170402711Y-106145888D01*
X170352266Y-106070544D01*
X170275291Y-105960699D01*
X170177781Y-105824905D01*
X170065729Y-105671715D01*
X170005795Y-105590240D01*
X169894608Y-105436619D01*
X169815480Y-105321692D01*
X169763438Y-105236918D01*
X169733509Y-105173756D01*
X169720720Y-105123664D01*
X169720096Y-105078101D01*
X169729367Y-104965569D01*
X170790380Y-104965569D01*
X170800266Y-105102215D01*
G37*
G36*
X163958101Y-109322152D02*
G01*
X163636582Y-109322152D01*
X163636582Y-108789532D01*
X163635729Y-108665682D01*
X163631585Y-108494877D01*
X163624590Y-108351737D01*
X163615401Y-108248473D01*
X163604677Y-108197296D01*
X163568710Y-108152591D01*
X163474116Y-108102311D01*
X163355384Y-108088184D01*
X163233514Y-108114872D01*
X163207356Y-108125723D01*
X163138050Y-108153537D01*
X163106422Y-108164683D01*
X163099523Y-108158061D01*
X163065740Y-108112823D01*
X163015280Y-108038861D01*
X162996976Y-108010828D01*
X162959228Y-107943437D01*
X162955338Y-107903318D01*
X162981561Y-107871920D01*
X163015911Y-107854673D01*
X163103671Y-107832077D01*
X163213275Y-107817979D01*
X163242509Y-107816114D01*
X163350475Y-107816752D01*
X163431150Y-107837875D01*
X163514076Y-107886182D01*
X163632708Y-107967205D01*
X163642683Y-107897147D01*
X163643591Y-107891358D01*
X163662036Y-107849883D01*
X163710213Y-107828017D01*
X163805380Y-107817289D01*
X163958101Y-107807489D01*
X163958101Y-109322152D01*
G37*
G36*
X160530910Y-95852674D02*
G01*
X160628589Y-95886813D01*
X160695470Y-95972571D01*
X160733888Y-96114472D01*
X160746175Y-96317040D01*
X160745920Y-96368656D01*
X160745353Y-96479683D01*
X160750542Y-96567121D01*
X160768558Y-96633773D01*
X160806470Y-96682444D01*
X160871346Y-96715935D01*
X160970255Y-96737051D01*
X161110268Y-96748594D01*
X161298452Y-96753369D01*
X161541878Y-96754178D01*
X161847614Y-96753825D01*
X161866584Y-96753825D01*
X162151319Y-96754004D01*
X162375247Y-96754904D01*
X162546475Y-96757095D01*
X162673116Y-96761148D01*
X162763277Y-96767631D01*
X162825069Y-96777116D01*
X162866603Y-96790171D01*
X162895986Y-96807366D01*
X162921330Y-96829272D01*
X162937567Y-96846100D01*
X162991421Y-96948051D01*
X162995292Y-97058065D01*
X162947112Y-97150390D01*
X162938254Y-97157798D01*
X162909079Y-97171508D01*
X162860352Y-97182327D01*
X162784953Y-97190582D01*
X162675762Y-97196597D01*
X162525657Y-97200699D01*
X162327519Y-97203215D01*
X162074225Y-97204469D01*
X161758656Y-97204788D01*
X161679963Y-97204770D01*
X161382917Y-97204388D01*
X161145750Y-97203199D01*
X160960739Y-97200783D01*
X160820166Y-97196717D01*
X160716309Y-97190581D01*
X160641448Y-97181954D01*
X160587863Y-97170417D01*
X160547833Y-97155547D01*
X160513639Y-97136923D01*
X160444658Y-97088920D01*
X160380986Y-97020921D01*
X160337877Y-96932111D01*
X160311646Y-96810405D01*
X160298609Y-96643717D01*
X160295082Y-96419960D01*
X160297890Y-96213974D01*
X160309003Y-96058549D01*
X160331905Y-95953972D01*
X160370076Y-95890874D01*
X160426994Y-95859886D01*
X160506139Y-95851639D01*
X160530910Y-95852674D01*
G37*
G36*
X170509238Y-95851741D02*
G01*
X170584040Y-95860445D01*
X170637163Y-95890045D01*
X170672210Y-95950223D01*
X170692783Y-96050659D01*
X170702485Y-96201035D01*
X170704918Y-96411032D01*
X170702319Y-96613920D01*
X170691017Y-96787750D01*
X170667375Y-96914995D01*
X170627788Y-97007625D01*
X170568652Y-97077611D01*
X170486362Y-97136923D01*
X170478505Y-97141623D01*
X170443640Y-97159334D01*
X170401140Y-97173389D01*
X170343284Y-97184211D01*
X170262353Y-97192219D01*
X170150626Y-97197834D01*
X170000381Y-97201478D01*
X169803900Y-97203571D01*
X169553462Y-97204534D01*
X169241345Y-97204788D01*
X169087212Y-97204736D01*
X168801328Y-97204025D01*
X168574426Y-97202228D01*
X168399387Y-97199019D01*
X168269088Y-97194073D01*
X168176410Y-97187062D01*
X168114231Y-97177662D01*
X168075431Y-97165547D01*
X168052889Y-97150390D01*
X168046745Y-97143901D01*
X168003322Y-97049030D01*
X168012877Y-96937709D01*
X168073809Y-96834135D01*
X168079675Y-96827911D01*
X168102793Y-96805859D01*
X168130682Y-96788685D01*
X168171420Y-96775779D01*
X168233086Y-96766531D01*
X168323759Y-96760331D01*
X168451517Y-96756570D01*
X168624438Y-96754638D01*
X168850601Y-96753927D01*
X169138085Y-96753825D01*
X169285547Y-96753939D01*
X169564368Y-96754082D01*
X169784010Y-96751925D01*
X169951500Y-96744843D01*
X170073864Y-96730209D01*
X170158126Y-96705396D01*
X170211313Y-96667779D01*
X170240451Y-96614730D01*
X170252565Y-96543624D01*
X170254681Y-96451834D01*
X170253826Y-96336733D01*
X170255925Y-96236222D01*
X170276555Y-96059146D01*
X170321607Y-95939944D01*
X170394028Y-95872735D01*
X170496762Y-95851639D01*
X170509238Y-95851741D01*
G37*
G36*
X169416736Y-86789032D02*
G01*
X169665835Y-86792252D01*
X169898690Y-86798165D01*
X170105182Y-86806775D01*
X170275191Y-86818084D01*
X170398597Y-86832097D01*
X170465280Y-86848815D01*
X170541665Y-86895277D01*
X170610242Y-86962773D01*
X170657126Y-87053816D01*
X170686034Y-87179785D01*
X170700682Y-87352059D01*
X170704789Y-87582016D01*
X170703758Y-87751891D01*
X170699045Y-87898215D01*
X170689391Y-87996342D01*
X170673579Y-88057728D01*
X170650391Y-88093832D01*
X170626235Y-88114085D01*
X170525706Y-88148129D01*
X170417494Y-88128163D01*
X170325743Y-88056932D01*
X170289613Y-87999836D01*
X170267438Y-87928003D01*
X170256655Y-87824004D01*
X170253826Y-87669295D01*
X170254111Y-87616586D01*
X170254669Y-87509720D01*
X170249365Y-87425578D01*
X170231141Y-87361457D01*
X170192939Y-87314655D01*
X170127702Y-87282469D01*
X170028373Y-87262195D01*
X169887893Y-87251132D01*
X169699205Y-87246576D01*
X169455252Y-87245824D01*
X169148976Y-87246174D01*
X169135514Y-87246174D01*
X168850206Y-87246002D01*
X168625828Y-87245113D01*
X168454256Y-87242936D01*
X168327363Y-87238896D01*
X168237022Y-87232423D01*
X168175109Y-87222942D01*
X168133497Y-87209881D01*
X168104059Y-87192667D01*
X168078671Y-87170727D01*
X168062434Y-87153899D01*
X168008579Y-87051948D01*
X168004708Y-86941934D01*
X168052889Y-86849609D01*
X168068279Y-86841606D01*
X168147731Y-86826070D01*
X168281777Y-86813203D01*
X168460298Y-86803009D01*
X168673174Y-86795492D01*
X168910286Y-86790655D01*
X169161513Y-86788500D01*
X169416736Y-86789032D01*
G37*
G36*
X163322804Y-89960017D02*
G01*
X163407613Y-89960581D01*
X163771777Y-89963091D01*
X164074393Y-89965981D01*
X164321948Y-89970177D01*
X164520929Y-89976599D01*
X164677824Y-89986171D01*
X164799118Y-89999815D01*
X164891298Y-90018455D01*
X164960852Y-90043012D01*
X165014266Y-90074411D01*
X165058027Y-90113573D01*
X165098622Y-90161421D01*
X165142537Y-90218879D01*
X165239755Y-90346301D01*
X165250059Y-91910514D01*
X165251419Y-92154184D01*
X165252426Y-92468021D01*
X165252519Y-92757872D01*
X165251741Y-93016168D01*
X165250134Y-93235341D01*
X165247741Y-93407822D01*
X165244602Y-93526044D01*
X165240762Y-93582439D01*
X165200774Y-93687900D01*
X165109374Y-93814497D01*
X164988593Y-93924087D01*
X164858061Y-93995489D01*
X164856064Y-93996152D01*
X164784490Y-94007682D01*
X164653175Y-94017879D01*
X164471266Y-94026701D01*
X164247911Y-94034106D01*
X163992258Y-94040052D01*
X163713455Y-94044497D01*
X163420651Y-94047399D01*
X163122993Y-94048718D01*
X162829630Y-94048409D01*
X162549709Y-94046433D01*
X162292379Y-94042747D01*
X162066789Y-94037309D01*
X161882085Y-94030077D01*
X161747416Y-94021010D01*
X161671930Y-94010065D01*
X161579303Y-93973942D01*
X161429196Y-93872026D01*
X161307388Y-93736523D01*
X161234304Y-93587169D01*
X161218119Y-93492226D01*
X161206459Y-93321262D01*
X161201661Y-93082805D01*
X161203756Y-92777685D01*
X161205942Y-92646898D01*
X161209978Y-92449714D01*
X161215223Y-92304678D01*
X161223184Y-92200558D01*
X161235368Y-92126121D01*
X161253284Y-92070133D01*
X161278437Y-92021364D01*
X161312336Y-91968578D01*
X161374084Y-91884495D01*
X161448570Y-91811880D01*
X161538757Y-91759416D01*
X161655354Y-91723974D01*
X161809072Y-91702421D01*
X162010622Y-91691629D01*
X162270715Y-91688467D01*
X162403112Y-91688435D01*
X162580021Y-91689670D01*
X162705567Y-91693654D01*
X162791110Y-91701689D01*
X162848011Y-91715082D01*
X162887631Y-91735134D01*
X162921330Y-91763152D01*
X162963984Y-91817301D01*
X162998723Y-91934812D01*
X162984142Y-92061885D01*
X162924263Y-92178052D01*
X162823110Y-92262848D01*
X162751979Y-92286282D01*
X162599841Y-92305814D01*
X162380708Y-92312295D01*
X162232137Y-92313421D01*
X162118556Y-92319204D01*
X162042572Y-92332801D01*
X161987478Y-92357363D01*
X161936567Y-92396039D01*
X161907878Y-92421466D01*
X161874874Y-92459512D01*
X161854611Y-92507644D01*
X161843983Y-92580691D01*
X161839884Y-92693479D01*
X161839208Y-92860838D01*
X161837639Y-92987240D01*
X161836613Y-93096244D01*
X161842383Y-93183632D01*
X161861206Y-93251770D01*
X161899339Y-93303027D01*
X161963039Y-93339768D01*
X162058564Y-93364363D01*
X162192171Y-93379177D01*
X162370117Y-93386578D01*
X162598660Y-93388934D01*
X162884057Y-93388611D01*
X163232564Y-93387978D01*
X163247272Y-93387978D01*
X163574057Y-93387827D01*
X163838748Y-93387144D01*
X164048363Y-93385562D01*
X164209921Y-93382716D01*
X164330441Y-93378238D01*
X164416940Y-93371764D01*
X164476439Y-93362928D01*
X164515955Y-93351362D01*
X164542508Y-93336701D01*
X164563115Y-93318579D01*
X164581134Y-93298123D01*
X164595878Y-93271548D01*
X164607498Y-93232022D01*
X164616363Y-93172488D01*
X164622845Y-93085891D01*
X164627316Y-92965175D01*
X164630147Y-92803283D01*
X164631710Y-92593161D01*
X164632375Y-92327752D01*
X164632514Y-92000000D01*
X164632379Y-91675532D01*
X164631721Y-91409469D01*
X164630171Y-91198771D01*
X164627356Y-91036383D01*
X164622905Y-90915248D01*
X164616447Y-90828311D01*
X164607611Y-90768516D01*
X164596024Y-90728806D01*
X164581316Y-90702126D01*
X164563115Y-90681420D01*
X164562304Y-90680611D01*
X164541591Y-90662637D01*
X164514648Y-90648109D01*
X164474456Y-90636661D01*
X164413996Y-90627928D01*
X164326250Y-90621542D01*
X164204198Y-90617138D01*
X164040822Y-90614351D01*
X163829104Y-90612813D01*
X163562024Y-90612158D01*
X163232564Y-90612021D01*
X163071531Y-90611970D01*
X162755569Y-90611983D01*
X162499653Y-90613349D01*
X162297304Y-90617514D01*
X162142045Y-90625923D01*
X162027398Y-90640021D01*
X161946886Y-90661253D01*
X161894031Y-90691064D01*
X161862356Y-90730898D01*
X161845383Y-90782202D01*
X161836635Y-90846420D01*
X161829634Y-90924997D01*
X161821431Y-90980612D01*
X161770049Y-91115978D01*
X161684263Y-91204739D01*
X161572560Y-91236612D01*
X161564983Y-91236462D01*
X161445991Y-91204206D01*
X161331021Y-91128853D01*
X161249905Y-91029551D01*
X161239805Y-91007099D01*
X161209605Y-90880217D01*
X161198877Y-90718965D01*
X161208123Y-90549482D01*
X161237840Y-90397908D01*
X161280450Y-90303368D01*
X161387397Y-90168440D01*
X161528000Y-90056824D01*
X161681288Y-89987909D01*
X161702360Y-89983619D01*
X161804378Y-89973713D01*
X161972841Y-89966209D01*
X162208333Y-89961098D01*
X162511435Y-89958368D01*
X162882731Y-89958011D01*
X163322804Y-89960017D01*
G37*
G36*
X161905528Y-86795179D02*
G01*
X162193469Y-86795858D01*
X162421984Y-86797619D01*
X162598250Y-86800796D01*
X162729447Y-86805723D01*
X162822753Y-86812734D01*
X162885347Y-86822162D01*
X162924407Y-86834343D01*
X162947112Y-86849609D01*
X162953256Y-86856098D01*
X162996678Y-86950969D01*
X162987124Y-87062290D01*
X162926192Y-87165864D01*
X162920326Y-87172089D01*
X162897208Y-87194140D01*
X162869319Y-87211314D01*
X162828581Y-87224220D01*
X162766915Y-87233468D01*
X162676242Y-87239668D01*
X162548484Y-87243429D01*
X162375563Y-87245361D01*
X162149400Y-87246073D01*
X161861916Y-87246174D01*
X161850981Y-87246175D01*
X161561165Y-87246592D01*
X161332642Y-87248085D01*
X161157571Y-87251082D01*
X161028114Y-87256011D01*
X160936431Y-87263300D01*
X160874682Y-87273376D01*
X160835029Y-87286667D01*
X160809632Y-87303602D01*
X160788653Y-87327312D01*
X160751486Y-87425899D01*
X160756277Y-87538575D01*
X160803602Y-87633811D01*
X160824952Y-87652665D01*
X160857424Y-87667924D01*
X160908655Y-87679269D01*
X160987087Y-87687271D01*
X161101158Y-87692501D01*
X161259308Y-87695529D01*
X161469976Y-87696928D01*
X161741602Y-87697267D01*
X161948093Y-87697301D01*
X162237936Y-87699614D01*
X162469051Y-87709012D01*
X162648086Y-87730415D01*
X162781689Y-87768741D01*
X162876508Y-87828909D01*
X162939190Y-87915839D01*
X162976383Y-88034450D01*
X162994736Y-88189661D01*
X163000896Y-88386391D01*
X163001510Y-88629560D01*
X163001640Y-89232208D01*
X162866924Y-89366923D01*
X162732209Y-89501639D01*
X161678468Y-89501127D01*
X161386312Y-89500768D01*
X161127888Y-89499168D01*
X160924013Y-89495126D01*
X160766949Y-89487429D01*
X160648956Y-89474863D01*
X160562295Y-89456212D01*
X160499228Y-89430262D01*
X160452015Y-89395800D01*
X160412918Y-89351611D01*
X160374198Y-89296480D01*
X160363574Y-89280203D01*
X160321693Y-89193900D01*
X160300778Y-89090143D01*
X160295082Y-88943284D01*
X160296835Y-88835700D01*
X160306825Y-88746386D01*
X160330246Y-88692037D01*
X160372202Y-88653470D01*
X160436616Y-88618770D01*
X160512577Y-88599453D01*
X160572260Y-88617123D01*
X160653731Y-88679418D01*
X160719277Y-88763965D01*
X160746175Y-88846715D01*
X160757815Y-88905866D01*
X160803602Y-88987090D01*
X160814205Y-88997679D01*
X160842181Y-89015733D01*
X160885744Y-89029168D01*
X160953863Y-89038654D01*
X161055506Y-89044864D01*
X161199642Y-89048468D01*
X161395237Y-89050138D01*
X161651261Y-89050546D01*
X161881332Y-89050093D01*
X162088203Y-89048128D01*
X162241808Y-89044086D01*
X162350770Y-89037410D01*
X162423711Y-89027545D01*
X162469253Y-89013933D01*
X162496019Y-88996018D01*
X162518982Y-88961668D01*
X162537743Y-88891352D01*
X162547652Y-88777941D01*
X162550547Y-88608382D01*
X162550549Y-88603610D01*
X162551478Y-88472438D01*
X162549102Y-88369124D01*
X162536080Y-88290357D01*
X162505071Y-88232827D01*
X162448734Y-88193223D01*
X162359728Y-88168235D01*
X162230714Y-88154552D01*
X162054350Y-88148864D01*
X161823296Y-88147861D01*
X161530210Y-88148230D01*
X161498022Y-88148223D01*
X161228276Y-88147768D01*
X161018145Y-88146202D01*
X160858780Y-88142933D01*
X160741328Y-88137370D01*
X160656939Y-88128923D01*
X160596761Y-88117000D01*
X160551945Y-88101012D01*
X160513639Y-88080366D01*
X160449293Y-88035223D01*
X160374365Y-87951672D01*
X160327009Y-87840709D01*
X160302256Y-87688727D01*
X160295136Y-87482119D01*
X160297846Y-87352916D01*
X160318230Y-87164406D01*
X160362193Y-87026084D01*
X160434017Y-86926914D01*
X160537979Y-86855859D01*
X160561604Y-86845110D01*
X160606923Y-86830289D01*
X160667075Y-86818683D01*
X160749857Y-86809909D01*
X160863061Y-86803584D01*
X161014483Y-86799327D01*
X161211918Y-86796755D01*
X161463161Y-86795485D01*
X161776006Y-86795135D01*
X161905528Y-86795179D01*
G37*
G36*
X168608973Y-89959104D02*
G01*
X168886918Y-89962716D01*
X169097467Y-89968714D01*
X169241205Y-89977108D01*
X169318713Y-89987909D01*
X169422622Y-90028836D01*
X169569641Y-90128718D01*
X169689811Y-90258205D01*
X169762161Y-90397908D01*
X169767030Y-90419306D01*
X169776871Y-90503509D01*
X169784970Y-90639233D01*
X169791392Y-90829454D01*
X169796204Y-91077152D01*
X169799471Y-91385302D01*
X169801257Y-91756883D01*
X169801629Y-92194872D01*
X169801535Y-92337915D01*
X169801150Y-92704570D01*
X169800195Y-93009894D01*
X169798157Y-93259873D01*
X169794524Y-93460493D01*
X169788784Y-93617739D01*
X169780425Y-93737597D01*
X169768935Y-93826052D01*
X169753801Y-93889090D01*
X169734511Y-93932697D01*
X169710553Y-93962858D01*
X169681415Y-93985559D01*
X169646585Y-94006785D01*
X169629965Y-94015443D01*
X169517782Y-94033164D01*
X169393771Y-94000924D01*
X169282241Y-93924232D01*
X169195492Y-93837578D01*
X169178143Y-92297797D01*
X169174503Y-91983016D01*
X169170464Y-91668610D01*
X169166418Y-91412003D01*
X169162038Y-91206904D01*
X169156998Y-91047023D01*
X169150974Y-90926069D01*
X169143640Y-90837751D01*
X169134670Y-90775777D01*
X169123739Y-90733858D01*
X169110521Y-90705702D01*
X169094691Y-90685019D01*
X169090150Y-90680065D01*
X169070638Y-90661938D01*
X169044739Y-90647355D01*
X169005450Y-90635929D01*
X168945772Y-90627276D01*
X168858702Y-90621010D01*
X168737239Y-90616747D01*
X168574382Y-90614102D01*
X168363131Y-90612689D01*
X168096482Y-90612124D01*
X167767437Y-90612021D01*
X167752729Y-90612022D01*
X167425944Y-90612172D01*
X167161253Y-90612855D01*
X166951638Y-90614437D01*
X166790080Y-90617284D01*
X166669560Y-90621761D01*
X166583061Y-90628235D01*
X166523562Y-90637072D01*
X166484046Y-90648637D01*
X166457493Y-90663298D01*
X166436886Y-90681420D01*
X166431070Y-90687384D01*
X166408883Y-90716121D01*
X166392542Y-90755268D01*
X166381159Y-90814656D01*
X166373848Y-90904117D01*
X166369723Y-91033482D01*
X166367898Y-91212581D01*
X166367487Y-91451247D01*
X166367532Y-91562189D01*
X166368309Y-91773189D01*
X166370809Y-91929103D01*
X166375997Y-92039920D01*
X166384838Y-92115628D01*
X166398298Y-92166216D01*
X166417342Y-92201672D01*
X166442934Y-92231984D01*
X166444029Y-92233149D01*
X166467649Y-92256667D01*
X166494524Y-92274994D01*
X166532922Y-92288775D01*
X166591110Y-92298660D01*
X166677357Y-92305295D01*
X166799930Y-92309329D01*
X166967099Y-92311408D01*
X167187130Y-92312181D01*
X167468291Y-92312295D01*
X167582986Y-92312348D01*
X167868981Y-92313535D01*
X168095961Y-92317406D01*
X168271625Y-92325424D01*
X168403676Y-92339056D01*
X168499814Y-92359766D01*
X168567741Y-92389019D01*
X168615157Y-92428281D01*
X168649764Y-92479017D01*
X168679264Y-92542693D01*
X168703749Y-92619460D01*
X168700811Y-92753999D01*
X168630819Y-92876161D01*
X168626253Y-92881026D01*
X168604996Y-92896394D01*
X168570829Y-92908665D01*
X168516692Y-92918178D01*
X168435523Y-92925272D01*
X168320262Y-92930286D01*
X168163847Y-92933558D01*
X167959216Y-92935428D01*
X167699311Y-92936233D01*
X167377068Y-92936314D01*
X167372928Y-92936312D01*
X167053237Y-92936045D01*
X166795242Y-92935281D01*
X166591327Y-92933573D01*
X166433878Y-92930473D01*
X166315280Y-92925532D01*
X166227919Y-92918303D01*
X166164180Y-92908336D01*
X166116448Y-92895184D01*
X166077110Y-92878399D01*
X166038549Y-92857533D01*
X166016716Y-92844119D01*
X165906888Y-92750878D01*
X165821472Y-92641232D01*
X165808913Y-92618965D01*
X165789388Y-92579729D01*
X165774237Y-92536083D01*
X165762994Y-92479901D01*
X165755190Y-92403062D01*
X165750356Y-92297443D01*
X165748025Y-92154919D01*
X165747728Y-91967369D01*
X165748998Y-91726669D01*
X165751366Y-91424695D01*
X165760246Y-90346249D01*
X165857464Y-90218853D01*
X165867269Y-90205964D01*
X165909955Y-90150604D01*
X165950680Y-90104658D01*
X165995931Y-90067204D01*
X166052195Y-90037319D01*
X166125958Y-90014081D01*
X166223709Y-89996567D01*
X166351933Y-89983855D01*
X166517117Y-89975021D01*
X166725749Y-89969143D01*
X166984315Y-89965298D01*
X167299302Y-89962563D01*
X167677197Y-89960017D01*
X167848570Y-89958998D01*
X168263052Y-89957868D01*
X168608973Y-89959104D01*
G37*
%TD*%
D11*
%TO.C,J1*%
X146000000Y-122300000D03*
X139000000Y-122300000D03*
D12*
X140000000Y-119600000D03*
X145000000Y-119600000D03*
%TD*%
D13*
%TO.C,J3*%
X149000000Y-117000000D03*
D14*
X151540000Y-117000000D03*
%TD*%
D15*
%TO.C,SW1*%
X130911600Y-120037000D03*
X130911600Y-122787000D03*
%TD*%
%TO.C,SW2*%
X153974800Y-122837800D03*
X153974800Y-120087800D03*
%TD*%
D13*
%TO.C,J4*%
X127250000Y-104500000D03*
D14*
X127250000Y-107040000D03*
X127250000Y-109580000D03*
X127250000Y-112120000D03*
%TD*%
D13*
%TO.C,J14*%
X160000000Y-98000000D03*
%TD*%
%TO.C,J5*%
X157750000Y-104500000D03*
D14*
X157750000Y-107040000D03*
X157750000Y-109580000D03*
X157750000Y-112120000D03*
%TD*%
D13*
%TO.C,J10*%
X136000000Y-120750000D03*
%TD*%
%TO.C,J7*%
X130500000Y-85000000D03*
%TD*%
%TO.C,J8*%
X154500000Y-85000000D03*
%TD*%
%TO.C,J9*%
X149000000Y-120750000D03*
%TD*%
%TO.C,J11*%
X124500000Y-99700000D03*
%TD*%
%TO.C,J12*%
X124500000Y-102250000D03*
%TD*%
%TO.C,J13*%
X124500000Y-104800000D03*
%TD*%
%TO.C,J6*%
X165404800Y-79400400D03*
D14*
X167944800Y-79400400D03*
X170484800Y-79400400D03*
X173024800Y-79400400D03*
%TD*%
D13*
%TO.C,J17*%
X181610000Y-79451200D03*
%TD*%
D16*
%TO.C,TP1*%
X137000000Y-93500000D03*
%TD*%
%TO.C,TP2*%
X149000000Y-93500000D03*
%TD*%
%TO.C,TP3*%
X149000000Y-96500000D03*
%TD*%
D17*
%TO.C,TP5*%
X143000000Y-93500000D03*
%TD*%
D16*
%TO.C,TP6*%
X143000000Y-96500000D03*
%TD*%
%TO.C,TP7*%
X146000000Y-99500000D03*
%TD*%
%TO.C,TP8*%
X137000000Y-96500000D03*
%TD*%
%TO.C,TP9*%
X140000000Y-99500000D03*
%TD*%
%TO.C,TP10*%
X143000000Y-99500000D03*
%TD*%
%TO.C,TP11*%
X140000000Y-96500000D03*
%TD*%
%TO.C,TP13*%
X140000000Y-84500000D03*
%TD*%
%TO.C,TP14*%
X137000000Y-99500000D03*
%TD*%
%TO.C,TP15*%
X149000000Y-90500000D03*
%TD*%
%TO.C,TP17*%
X146000000Y-93500000D03*
%TD*%
%TO.C,TP18*%
X146000000Y-90500000D03*
%TD*%
%TO.C,TP19*%
X146000000Y-87500000D03*
%TD*%
%TO.C,TP20*%
X146000000Y-96500000D03*
%TD*%
%TO.C,TP21*%
X140000000Y-87500000D03*
%TD*%
%TO.C,TP22*%
X137000000Y-90500000D03*
%TD*%
%TO.C,TP23*%
X140000000Y-93500000D03*
%TD*%
%TO.C,TP24*%
X143000000Y-87500000D03*
%TD*%
%TO.C,TP25*%
X143000000Y-90500000D03*
%TD*%
%TO.C,TP4*%
X140000000Y-90500000D03*
%TD*%
%TO.C,TP16*%
X149000000Y-87500000D03*
%TD*%
%TO.C,TP12*%
X137000000Y-87500000D03*
%TD*%
%TO.C,TP26*%
X146000000Y-84500000D03*
%TD*%
%TO.C,TP27*%
X149000000Y-84500000D03*
%TD*%
%TO.C,TP28*%
X137000000Y-84500000D03*
%TD*%
%TO.C,TP29*%
X143000000Y-84500000D03*
%TD*%
M02*
