%TF.GenerationSoftware,KiCad,Pcbnew,(5.99.0-10282-g296a9df530)*%
%TF.CreationDate,2021-04-29T22:35:14+02:00*%
%TF.ProjectId,Eck_hoch_3_V1,45636b5f-686f-4636-985f-335f56312e6b,rev?*%
%TF.SameCoordinates,Original*%
%TF.FileFunction,Soldermask,Top*%
%TF.FilePolarity,Negative*%
%FSLAX46Y46*%
G04 Gerber Fmt 4.6, Leading zero omitted, Abs format (unit mm)*
G04 Created by KiCad (PCBNEW (5.99.0-10282-g296a9df530)) date 2021-04-29 22:35:14*
%MOMM*%
%LPD*%
G01*
G04 APERTURE LIST*
G04 Aperture macros list*
%AMRoundRect*
0 Rectangle with rounded corners*
0 $1 Rounding radius*
0 $2 $3 $4 $5 $6 $7 $8 $9 X,Y pos of 4 corners*
0 Add a 4 corners polygon primitive as box body*
4,1,4,$2,$3,$4,$5,$6,$7,$8,$9,$2,$3,0*
0 Add four circle primitives for the rounded corners*
1,1,$1+$1,$2,$3*
1,1,$1+$1,$4,$5*
1,1,$1+$1,$6,$7*
1,1,$1+$1,$8,$9*
0 Add four rect primitives between the rounded corners*
20,1,$1+$1,$2,$3,$4,$5,0*
20,1,$1+$1,$4,$5,$6,$7,0*
20,1,$1+$1,$6,$7,$8,$9,0*
20,1,$1+$1,$8,$9,$2,$3,0*%
G04 Aperture macros list end*
%ADD10R,0.800000X0.900000*%
%ADD11RoundRect,0.150000X0.150000X-0.825000X0.150000X0.825000X-0.150000X0.825000X-0.150000X-0.825000X0*%
%ADD12R,2.000000X0.900000*%
%ADD13R,0.900000X2.000000*%
%ADD14R,5.000000X5.000000*%
%ADD15RoundRect,0.225000X-0.225000X-0.250000X0.225000X-0.250000X0.225000X0.250000X-0.225000X0.250000X0*%
%ADD16RoundRect,0.225000X0.225000X0.250000X-0.225000X0.250000X-0.225000X-0.250000X0.225000X-0.250000X0*%
%ADD17RoundRect,0.250000X0.625000X-0.375000X0.625000X0.375000X-0.625000X0.375000X-0.625000X-0.375000X0*%
%ADD18R,0.400000X1.350000*%
%ADD19O,0.890000X1.550000*%
%ADD20R,1.200000X1.550000*%
%ADD21O,1.250000X0.950000*%
%ADD22R,1.500000X1.550000*%
%ADD23R,1.700000X1.700000*%
%ADD24O,1.700000X1.700000*%
%ADD25RoundRect,0.250000X1.075000X-0.375000X1.075000X0.375000X-1.075000X0.375000X-1.075000X-0.375000X0*%
%ADD26RoundRect,0.200000X-0.275000X0.200000X-0.275000X-0.200000X0.275000X-0.200000X0.275000X0.200000X0*%
%ADD27RoundRect,0.200000X0.275000X-0.200000X0.275000X0.200000X-0.275000X0.200000X-0.275000X-0.200000X0*%
%ADD28RoundRect,0.200000X0.200000X0.275000X-0.200000X0.275000X-0.200000X-0.275000X0.200000X-0.275000X0*%
%ADD29C,0.750000*%
%ADD30R,1.550000X1.000000*%
%ADD31R,0.650000X1.060000*%
%ADD32RoundRect,0.225000X-0.250000X0.225000X-0.250000X-0.225000X0.250000X-0.225000X0.250000X0.225000X0*%
%ADD33RoundRect,0.225000X0.250000X-0.225000X0.250000X0.225000X-0.250000X0.225000X-0.250000X-0.225000X0*%
%ADD34RoundRect,0.250000X-1.075000X0.375000X-1.075000X-0.375000X1.075000X-0.375000X1.075000X0.375000X0*%
%ADD35RoundRect,0.200000X-0.200000X-0.275000X0.200000X-0.275000X0.200000X0.275000X-0.200000X0.275000X0*%
%ADD36R,1.400000X2.500000*%
%ADD37R,1.600000X0.850000*%
G04 APERTURE END LIST*
D10*
%TO.C,Q2*%
X155950000Y-97000000D03*
X154050000Y-97000000D03*
X155000000Y-99000000D03*
%TD*%
D11*
%TO.C,U2*%
X151595000Y-113725000D03*
X152865000Y-113725000D03*
X154135000Y-113725000D03*
X155405000Y-113725000D03*
X155405000Y-108775000D03*
X154135000Y-108775000D03*
X152865000Y-108775000D03*
X151595000Y-108775000D03*
%TD*%
D12*
%TO.C,U3*%
X133994000Y-84251800D03*
X133994000Y-85521800D03*
X133994000Y-86791800D03*
X133994000Y-88061800D03*
X133994000Y-89331800D03*
X133994000Y-90601800D03*
X133994000Y-91871800D03*
X133994000Y-93141800D03*
X133994000Y-94411800D03*
X133994000Y-95681800D03*
X133994000Y-96951800D03*
X133994000Y-98221800D03*
X133994000Y-99491800D03*
X133994000Y-100761800D03*
D13*
X136779000Y-101761800D03*
X138049000Y-101761800D03*
X139319000Y-101761800D03*
X140589000Y-101761800D03*
X141859000Y-101761800D03*
X143129000Y-101761800D03*
X144399000Y-101761800D03*
X145669000Y-101761800D03*
X146939000Y-101761800D03*
X148209000Y-101761800D03*
D12*
X150994000Y-100761800D03*
X150994000Y-99491800D03*
X150994000Y-98221800D03*
X150994000Y-96951800D03*
X150994000Y-95681800D03*
X150994000Y-94411800D03*
X150994000Y-93141800D03*
X150994000Y-91871800D03*
X150994000Y-90601800D03*
X150994000Y-89331800D03*
X150994000Y-88061800D03*
X150994000Y-86791800D03*
X150994000Y-85521800D03*
X150994000Y-84251800D03*
D14*
X141494000Y-91751800D03*
%TD*%
D15*
%TO.C,C2*%
X150975000Y-106500000D03*
X152525000Y-106500000D03*
%TD*%
%TO.C,C3*%
X153975000Y-106500000D03*
X155525000Y-106500000D03*
%TD*%
D16*
%TO.C,C5*%
X144875000Y-109450000D03*
X143325000Y-109450000D03*
%TD*%
%TO.C,C6*%
X144900000Y-111025000D03*
X143350000Y-111025000D03*
%TD*%
D17*
%TO.C,D2*%
X149500000Y-114150000D03*
X149500000Y-111350000D03*
%TD*%
D18*
%TO.C,J1*%
X141200000Y-119600000D03*
X141850000Y-119600000D03*
X142500000Y-119600000D03*
X143150000Y-119600000D03*
X143800000Y-119600000D03*
D19*
X146000000Y-122300000D03*
D20*
X139600000Y-122300000D03*
D19*
X139000000Y-122300000D03*
D21*
X140000000Y-119600000D03*
D22*
X141500000Y-122300000D03*
D21*
X145000000Y-119600000D03*
D20*
X145400000Y-122300000D03*
D22*
X143500000Y-122300000D03*
%TD*%
D23*
%TO.C,J3*%
X149000000Y-117000000D03*
D24*
X151540000Y-117000000D03*
%TD*%
D25*
%TO.C,L1*%
X140950000Y-111775000D03*
X140950000Y-108975000D03*
%TD*%
D26*
%TO.C,R1*%
X146400000Y-111225000D03*
X146400000Y-112875000D03*
%TD*%
D27*
%TO.C,R4*%
X146375000Y-115925000D03*
X146375000Y-114275000D03*
%TD*%
%TO.C,R6*%
X131750000Y-102325000D03*
X131750000Y-100675000D03*
%TD*%
%TO.C,R7*%
X130000000Y-102325000D03*
X130000000Y-100675000D03*
%TD*%
%TO.C,R8*%
X155000000Y-102325000D03*
X155000000Y-100675000D03*
%TD*%
%TO.C,R9*%
X149250000Y-109825000D03*
X149250000Y-108175000D03*
%TD*%
%TO.C,R10*%
X128250000Y-102325000D03*
X128250000Y-100675000D03*
%TD*%
%TO.C,R11*%
X126500000Y-102325000D03*
X126500000Y-100675000D03*
%TD*%
D28*
%TO.C,R12*%
X149325000Y-106500000D03*
X147675000Y-106500000D03*
%TD*%
D26*
%TO.C,R14*%
X158500000Y-100675000D03*
X158500000Y-102325000D03*
%TD*%
D29*
%TO.C,SW1*%
X130911600Y-120037000D03*
X130911600Y-122787000D03*
D30*
X128286600Y-122262000D03*
X133536600Y-122262000D03*
X133536600Y-120562000D03*
X128286600Y-120562000D03*
%TD*%
D29*
%TO.C,SW2*%
X153974800Y-122837800D03*
X153974800Y-120087800D03*
D30*
X156599800Y-122312800D03*
X151349800Y-122312800D03*
X156599800Y-120612800D03*
X151349800Y-120612800D03*
%TD*%
D23*
%TO.C,J4*%
X127250000Y-104500000D03*
D24*
X127250000Y-107040000D03*
X127250000Y-109580000D03*
X127250000Y-112120000D03*
%TD*%
D10*
%TO.C,Q4*%
X130950000Y-97000000D03*
X129050000Y-97000000D03*
X130000000Y-99000000D03*
%TD*%
D23*
%TO.C,J14*%
X160000000Y-98000000D03*
%TD*%
%TO.C,J5*%
X157750000Y-104500000D03*
D24*
X157750000Y-107040000D03*
X157750000Y-109580000D03*
X157750000Y-112120000D03*
%TD*%
D31*
%TO.C,U1*%
X144625000Y-113575000D03*
X143675000Y-113575000D03*
X142725000Y-113575000D03*
X142725000Y-115775000D03*
X143675000Y-115775000D03*
X144625000Y-115775000D03*
%TD*%
D15*
%TO.C,C1*%
X140975000Y-117400000D03*
X142525000Y-117400000D03*
%TD*%
D32*
%TO.C,C4*%
X141000000Y-114325000D03*
X141000000Y-115875000D03*
%TD*%
D31*
%TO.C,U4*%
X133375000Y-112900000D03*
X134325000Y-112900000D03*
X135275000Y-112900000D03*
X135275000Y-110700000D03*
X134325000Y-110700000D03*
X133375000Y-110700000D03*
%TD*%
D23*
%TO.C,J10*%
X136000000Y-120750000D03*
%TD*%
D15*
%TO.C,C10*%
X133875000Y-115275000D03*
X135425000Y-115275000D03*
%TD*%
D33*
%TO.C,C8*%
X136975000Y-112150000D03*
X136975000Y-110600000D03*
%TD*%
D15*
%TO.C,C9*%
X133875000Y-116900000D03*
X135425000Y-116900000D03*
%TD*%
D34*
%TO.C,L2*%
X137850000Y-113925000D03*
X137850000Y-116725000D03*
%TD*%
D16*
%TO.C,C7*%
X137175000Y-109075000D03*
X135625000Y-109075000D03*
%TD*%
D27*
%TO.C,R15*%
X131550000Y-115300000D03*
X131550000Y-113650000D03*
%TD*%
D28*
%TO.C,R17*%
X133125000Y-108975000D03*
X131475000Y-108975000D03*
%TD*%
D26*
%TO.C,R18*%
X131550000Y-110500000D03*
X131550000Y-112150000D03*
%TD*%
%TO.C,R5*%
X153250000Y-100675000D03*
X153250000Y-102325000D03*
%TD*%
D35*
%TO.C,R3*%
X144825000Y-117400000D03*
X146475000Y-117400000D03*
%TD*%
D27*
%TO.C,R13*%
X156750000Y-102325000D03*
X156750000Y-100675000D03*
%TD*%
D23*
%TO.C,J7*%
X130500000Y-85000000D03*
%TD*%
%TO.C,J8*%
X154500000Y-85000000D03*
%TD*%
%TO.C,J9*%
X149000000Y-120750000D03*
%TD*%
%TO.C,J11*%
X124500000Y-99700000D03*
%TD*%
%TO.C,J12*%
X124500000Y-102250000D03*
%TD*%
%TO.C,J13*%
X124500000Y-104800000D03*
%TD*%
%TO.C,J6*%
X165404800Y-79400400D03*
D24*
X167944800Y-79400400D03*
X170484800Y-79400400D03*
X173024800Y-79400400D03*
%TD*%
D36*
%TO.C,BZ1*%
X125410400Y-88381200D03*
X125410400Y-93381200D03*
X129910400Y-88381200D03*
%TD*%
D23*
%TO.C,J17*%
X181610000Y-79451200D03*
%TD*%
D37*
%TO.C,D1*%
X178838800Y-79665800D03*
X178838800Y-77915800D03*
X175338800Y-77915800D03*
X175338800Y-79665800D03*
%TD*%
M02*
