M48
; DRILL file {KiCad (5.99.0-9996-g3279e295ac)} date Thu Apr  8 22:40:20 2021
; FORMAT={-:-/ absolute / inch / decimal}
; #@! TF.CreationDate,2021-04-08T22:40:20+02:00
; #@! TF.GenerationSoftware,Kicad,Pcbnew,(5.99.0-9996-g3279e295ac)
; #@! TF.FileFunction,MixedPlating,1,2
FMAT,2
INCH
; #@! TA.AperFunction,ViaDrill
T1C0.0157
; #@! TA.AperFunction,ComponentDrill,Plated,PTH
T2C0.0197
; #@! TA.AperFunction,ComponentDrill,Plated,PTH
T3C0.0217
; #@! TA.AperFunction,ComponentDrill,Plated,PTH
T4C0.0394
; #@! TA.AperFunction,ComponentDrill,NonPlated,NPTH
T5C0.0295
%
G90
G05
T1
; via hole
X4.89Y-4.208
X4.938Y-3.404
X4.938Y-3.756
X4.9429Y-3.8445
X4.9803Y-3.8783
X5.0118Y-3.8169
X5.052Y-4.702
X5.1181Y-3.7795
X5.1181Y-4.0709
X5.1772Y-3.8976
X5.1822Y-4.0661
X5.1969Y-3.3701
X5.1969Y-3.4606
X5.1969Y-3.6811
X5.2008Y-3.315
X5.24Y-4.012
X5.256Y-4.704
X5.2795Y-4.2904
X5.2884Y-4.4028
X5.3327Y-4.4894
X5.3543Y-4.0945
X5.3882Y-4.0697
X5.3937Y-3.3268
X5.3937Y-3.4449
X5.3937Y-3.6811
X5.3937Y-3.7992
X5.3937Y-3.9173
X5.3942Y-3.5635
X5.4006Y-4.2431
X5.438Y-4.3829
X5.448Y-3.718
X5.4502Y-3.382
X5.5118Y-3.3268
X5.5118Y-3.7992
X5.5118Y-3.9173
X5.5123Y-3.4454
X5.6299Y-3.3268
X5.6299Y-3.4449
X5.6299Y-3.685
X5.6299Y-3.7992
X5.6299Y-3.9173
X5.6447Y-4.4183
X5.6565Y-4.5136
X5.6634Y-4.622
X5.6905Y-3.5032
X5.748Y-3.3268
X5.748Y-3.4449
X5.748Y-3.563
X5.748Y-3.6811
X5.748Y-3.7992
X5.748Y-3.9173
X5.748Y-4.0748
X5.7707Y-4.1447
X5.782Y-3.74
X5.7923Y-4.2913
X5.794Y-4.074
X5.808Y-3.836
X5.815Y-4.1457
X5.8258Y-4.4183
X5.8611Y-3.8021
X5.8656Y-3.5635
X5.8661Y-3.3268
X5.8661Y-3.4449
X5.8661Y-3.6811
X5.8661Y-3.878
X5.8661Y-3.921
X5.878Y-4.0669
X5.8858Y-4.5433
X5.908Y-4.016
X5.9242Y-4.2913
X5.942Y-4.134
X5.9449Y-4.0354
X6.0018Y-4.3582
X6.0039Y-4.1496
X6.0079Y-3.9173
X6.0079Y-3.7992
X6.0118Y-3.3189
X6.0138Y-3.8386
X6.0138Y-3.8386
X6.0138Y-3.8386
X6.014Y-4.748
X6.0148Y-3.5428
X6.016Y-3.732
X6.0236Y-3.4843
X6.0463Y-4.3473
X6.0669Y-4.5472
X6.1016Y-3.7937
X6.1034Y-4.003
X6.1128Y-4.0699
X6.128Y-4.646
X6.1319Y-3.7205
X6.14Y-3.766
X6.146Y-3.872
X6.222Y-4.764
X6.2707Y-3.796
X6.2992Y-3.5132
X6.506Y-4.728
X6.87Y-4.648
X6.982Y-3.088
X7.202Y-4.714
T4
; plated pad hole
X4.9016Y-3.9252
X4.9016Y-4.0256
X4.9016Y-4.126
X5.0098Y-4.1142
X5.0098Y-4.2142
X5.0098Y-4.3142
X5.0098Y-4.4142
X5.1378Y-3.3465
X5.3543Y-4.7539
X5.8661Y-4.6063
X5.8661Y-4.7539
X5.9661Y-4.6063
X6.0827Y-3.3465
X6.2106Y-4.1142
X6.2106Y-4.2142
X6.2106Y-4.3142
X6.2106Y-4.4142
X6.2992Y-3.8583
X6.512Y-3.126
X6.612Y-3.126
X6.712Y-3.126
X6.812Y-3.126
X7.15Y-3.128
T5
; not plated pad hole
X5.154Y-4.7259
X5.154Y-4.8341
X6.062Y-4.7279
X6.062Y-4.8361
T2
; plated pad hole
G00X5.4724Y-4.8022
M15
G01X5.4724Y-4.8278
M16
G05
G00X5.748Y-4.8022
M15
G01X5.748Y-4.8278
M16
G05
T3
G00X5.5059Y-4.7087
M15
G01X5.5177Y-4.7087
M16
G05
G00X5.7028Y-4.7087
M15
G01X5.7146Y-4.7087
M16
G05
T0
M30
